<?xml version="1.0" standalone="no"?>
<!DOCTYPE svg PUBLIC "-//W3C//DTD SVG 20010904//EN"
 "http://www.w3.org/TR/2001/REC-SVG-20010904/DTD/svg10.dtd">
<svg version="1.0" xmlns="http://www.w3.org/2000/svg"
 width="2000.000000pt" height="2000.000000pt" viewBox="0 0 2000.000000 2000.000000"
 preserveAspectRatio="xMidYMid meet">
<metadata>
Created by potrace 1.11, written by Peter Selinger 2001-2013
</metadata>
<g transform="translate(0.000000,2000.000000) scale(0.100000,-0.100000)"
fill="#000000" stroke="none">
<path d="M9608 19905 c-2 -2 -63 -6 -136 -10 -160 -7 -271 -16 -412 -30 -25
-2 -74 -7 -110 -11 -36 -3 -72 -7 -80 -9 -9 -2 -46 -6 -82 -9 -37 -4 -75 -8
-85 -10 -25 -5 -100 -15 -148 -21 -22 -3 -67 -10 -100 -16 -33 -7 -70 -13 -82
-14 -48 -6 -111 -17 -178 -30 -38 -8 -83 -16 -100 -19 -164 -29 -521 -113
-750 -178 -60 -17 -114 -31 -120 -33 -5 -1 -17 -5 -25 -8 -8 -3 -33 -11 -55
-16 -96 -25 -598 -196 -690 -236 -16 -7 -57 -23 -90 -35 -97 -37 -281 -115
-485 -206 -115 -52 -476 -231 -521 -260 -24 -15 -45 -26 -47 -25 -7 5 -430
-240 -607 -353 -111 -70 -402 -266 -464 -313 -224 -165 -430 -322 -451 -343
-8 -8 -36 -31 -61 -50 -93 -71 -296 -248 -483 -421 -108 -100 -432 -425 -526
-528 -166 -182 -288 -322 -367 -421 -6 -8 -36 -44 -65 -80 -30 -36 -63 -77
-73 -91 -11 -15 -49 -64 -85 -110 -98 -125 -218 -291 -314 -434 -23 -33 -44
-61 -48 -63 -5 -2 -8 -8 -8 -12 0 -5 -24 -44 -53 -87 -87 -129 -207 -327 -321
-528 -59 -104 -114 -201 -122 -215 -33 -55 -276 -553 -329 -675 -32 -71 -86
-202 -122 -290 -35 -88 -68 -169 -73 -180 -48 -106 -254 -735 -295 -901 -3
-10 -23 -89 -45 -174 -35 -133 -89 -369 -104 -450 -2 -14 -12 -58 -20 -97 -9
-40 -18 -85 -20 -100 -21 -124 -38 -222 -41 -243 -3 -14 -8 -45 -11 -70 -3
-25 -8 -52 -9 -62 -2 -9 -6 -38 -10 -65 -4 -26 -9 -59 -11 -73 -2 -14 -6 -54
-10 -90 -3 -36 -8 -72 -9 -81 -2 -9 -6 -52 -10 -95 -4 -43 -9 -87 -10 -96 -2
-9 -7 -58 -10 -110 -4 -51 -8 -109 -10 -128 -13 -134 -20 -379 -20 -715 0
-385 5 -522 30 -825 11 -132 15 -174 19 -210 6 -38 12 -93 21 -185 4 -33 8
-67 10 -75 2 -8 7 -40 10 -70 3 -30 8 -66 11 -80 2 -14 6 -36 9 -49 2 -14 7
-45 10 -70 3 -25 7 -57 10 -71 3 -14 9 -50 15 -80 38 -215 80 -419 117 -565
14 -55 27 -111 29 -124 7 -35 72 -277 94 -346 10 -33 30 -100 45 -150 107
-361 276 -804 466 -1225 112 -250 348 -698 485 -922 30 -49 54 -93 54 -99 0
-5 5 -9 10 -9 6 0 10 -5 10 -11 0 -10 17 -37 172 -274 79 -119 219 -325 240
-350 4 -5 66 -86 136 -178 191 -253 290 -376 387 -483 6 -6 29 -33 52 -61 142
-167 477 -514 683 -708 576 -541 1326 -1089 1965 -1437 50 -27 97 -53 105 -57
76 -42 121 -65 300 -154 197 -99 341 -165 565 -262 235 -102 698 -269 975
-352 184 -55 509 -142 587 -158 10 -2 50 -11 88 -20 39 -9 84 -19 100 -22 17
-2 46 -8 65 -13 62 -16 342 -68 465 -85 22 -4 47 -8 55 -10 8 -2 38 -7 65 -10
28 -4 95 -13 150 -20 101 -14 136 -19 255 -30 36 -4 79 -8 95 -10 17 -2 68 -7
115 -10 47 -4 108 -8 135 -10 331 -27 1086 -27 1415 0 25 2 81 7 125 10 44 4
93 8 110 10 16 2 57 6 90 10 33 3 76 8 95 10 19 2 60 7 90 10 51 6 87 10 150
20 14 2 48 7 75 10 28 4 57 8 65 10 8 2 35 7 60 10 46 6 186 30 230 40 14 3
52 10 85 16 88 15 385 79 420 89 26 8 252 66 295 75 240 55 983 312 1255 435
22 10 67 29 100 43 91 38 182 81 375 174 193 94 197 96 290 145 142 76 214
117 358 199 17 11 47 27 65 38 253 145 716 459 982 665 101 78 277 218 285
226 3 3 34 30 70 60 220 185 395 346 619 571 177 176 233 235 371 388 41 46
80 89 87 96 33 35 291 349 378 461 219 282 439 599 609 879 36 61 71 117 76
125 135 219 390 705 505 965 26 61 60 137 75 170 118 260 297 752 403 1110 49
163 139 510 162 620 5 25 45 212 51 240 8 34 24 119 29 150 3 17 12 66 20 110
8 44 17 98 20 120 4 22 10 67 15 100 5 33 12 83 15 110 4 28 8 57 10 65 2 8 7
49 11 90 3 41 8 77 9 80 2 3 6 41 10 85 4 44 8 91 11 105 2 14 6 70 10 125 3
55 8 111 10 125 25 160 25 1191 -1 1403 -2 18 -7 74 -10 125 -3 51 -8 101 -10
110 -1 9 -6 53 -10 97 -4 44 -9 96 -11 115 -3 19 -7 53 -10 75 -8 66 -44 318
-48 340 -2 11 -9 54 -16 95 -6 41 -25 145 -42 230 -16 85 -32 164 -34 175 -2
11 -7 34 -11 50 -4 17 -7 32 -8 35 -10 47 -43 191 -66 280 -30 119 -32 126
-75 275 -14 50 -27 95 -28 100 -7 29 -64 210 -113 355 -248 739 -602 1482
-1018 2135 -78 122 -128 197 -269 405 -40 58 -184 253 -278 375 -291 378 -740
867 -1102 1200 -174 159 -244 221 -401 350 -66 55 -122 102 -125 105 -3 3 -23
19 -45 35 -22 17 -42 32 -45 36 -3 3 -84 64 -180 136 -857 639 -1774 1121
-2785 1461 -158 54 -356 115 -440 138 -358 95 -666 167 -854 200 -47 8 -97 17
-111 20 -73 14 -306 52 -365 59 -22 2 -56 7 -75 10 -40 6 -81 11 -165 20 -33
3 -73 8 -90 10 -28 3 -117 12 -210 20 -48 4 -177 13 -295 21 -89 7 -936 14
-942 9z"/>
</g>
</svg>
